<svg xmlns="http://www.w3.org/2000/svg" width="64" height="64" viewBox="0 0 128 128" role="img" aria-labelledby="pb-favicon-title pb-favicon-desc">
  <title id="pb-favicon-title">Plainbase</title>
  <desc id="pb-favicon-desc">Lowercase /pb mark on a light gray rounded square.</desc>
  <path fill="#f4f4f5" d="M28 0h72c15.464 0 28 12.536 28 28v72c0 15.464-12.536 28-28 28H28c-15.464 0-28-12.536-28-28V28C0 12.536 12.536 0 28 0Z" />
  <path fill="#0f766e" d="M13 91 38 31h11L24 91H13Z" />
  <path fill="#0f172a" aria-label="pb" d="M 57.004,93.36 V 55.4 h 6.344 v 5.252 q 0.78,-2.704 2.808,-4.212 2.028,-1.56 5.044,-1.56 2.756,0 4.836,1.352 2.132,1.352 3.276,3.848 1.196,2.444 1.196,5.72 v 7.748 q 0,4.94 -2.548,7.956 -2.548,3.016 -6.76,3.016 -3.016,0 -5.096,-1.56 -2.028,-1.56 -2.808,-4.368 l 0.208,6.76 V 93.36 Z M 68.756,78.904 q 2.496,0 3.848,-1.352 1.404,-1.352 1.404,-4.16 v -7.384 q 0,-2.808 -1.404,-4.16 -1.352,-1.352 -3.848,-1.352 -2.496,0 -3.9,1.508 -1.352,1.508 -1.352,4.264 v 6.864 q 0,2.756 1.352,4.264 1.404,1.508 3.9,1.508 z m 33.64402,5.616 q -3.016,0 -5.044,-1.508 -2.028,-1.508 -2.808,-4.212 V 84 h -6.344 V 46.04 h 6.5 v 8.008 l -0.208,6.552 q 0.832,-2.704 2.86,-4.212 2.08,-1.508 5.044,-1.508 4.212,0 6.76,2.964 2.548,2.964 2.548,8.008 V 73.6 q 0,4.992 -2.6,7.956 -2.548,2.964 -6.708,2.964 z m -2.444,-5.616 q 2.496,0 3.848,-1.352 1.404,-1.352 1.404,-4.16 v -7.384 q 0,-2.808 -1.404,-4.16 -1.352,-1.352 -3.848,-1.352 -2.496,0 -3.9,1.508 -1.352,1.508 -1.352,4.264 v 6.864 q 0,2.756 1.352,4.264 1.404,1.508 3.9,1.508 z" />
</svg>
