<svg xmlns="http://www.w3.org/2000/svg" width="387.12" height="72.52" viewBox="0 0 387.12 72.52" role="img" aria-labelledby="pb-logo-title pb-logo-desc">
  <title id="pb-logo-title">Plainbase</title>
  <desc id="pb-logo-desc">Plainbase wordmark: a teal slash before the lowercase word plainbase in JetBrains Mono.</desc>
  <path fill="#0f766e" d="M 0,64.8 27,0 h 11.88 l -27,64.8 z" />
  <path fill="#0f172a" aria-label="plainbase" d="M 50.928,72.52 V 25.8 h 7.808 v 6.464 q 0.96,-3.328 3.456,-5.184 2.496,-1.92 6.208,-1.92 3.392,0 5.952,1.664 2.624,1.664 4.032,4.736 1.472,3.008 1.472,7.04 v 9.536 q 0,6.08 -3.136,9.792 -3.136,3.712 -8.32,3.712 -3.712,0 -6.272,-1.92 -2.496,-1.92 -3.456,-5.376 l 0.256,8.32 V 72.52 Z M 65.392,54.728 q 3.072,0 4.736,-1.664 1.728,-1.664 1.728,-5.12 v -9.088 q 0,-3.456 -1.728,-5.12 -1.664,-1.664 -4.736,-1.664 -3.072,0 -4.8,1.856 -1.664,1.856 -1.664,5.248 v 8.448 q 0,3.392 1.664,5.248 1.728,1.856 4.8,1.856 z M 109.29602,61 q -5.248,0 -8.448,-3.136 -3.136,-3.136 -3.136,-8.256 V 21.512 H 86.128024 V 14.28 h 19.583996 v 35.136 q 0,1.984 1.088,3.2 1.152,1.152 3.072,1.152 h 10.304 V 61 Z m 28.80003,0.64 q -5.376,0 -8.512,-3.008 -3.072,-3.072 -3.072,-8 0,-5.12 3.52,-8.128 3.52,-3.072 9.664,-3.072 h 8.576 v -2.496 q 0,-5.312 -6.208,-5.312 -2.816,0 -4.48,1.088 -1.664,1.088 -1.856,3.072 h -7.68 q 0.256,-4.736 3.968,-7.68 3.776,-2.944 10.112,-2.944 6.72,0 10.432,3.136 3.712,3.136 3.712,8.832 V 61 h -7.808 v -6.592 q -0.448,3.392 -3.2,5.312 -2.752,1.92 -7.168,1.92 z m 2.56,-6.528 q 3.52,0 5.568,-1.728 2.048,-1.728 2.048,-4.608 v -4.16 h -8.192 q -2.624,0 -4.16,1.472 -1.536,1.472 -1.536,3.776 0,2.368 1.6,3.84 1.664,1.408 4.672,1.408 z M 166.06407,61 v -7.232 h 12.032 V 33.032 h -10.752 V 25.8 h 18.752 v 27.968 h 10.816 V 61 Z m 15.488,-41.088 q -2.432,0 -3.84,-1.216 -1.408,-1.28 -1.408,-3.392 0,-2.112 1.408,-3.328 1.408,-1.28 3.84,-1.28 2.432,0 3.84,1.28 1.408,1.216 1.408,3.328 0,2.112 -1.408,3.392 -1.408,1.216 -3.84,1.216 z M 204.5281,61 V 25.8 h 7.808 v 6.592 q 0.64,-3.328 3.136,-5.248 2.496,-1.984 6.336,-1.984 5.184,0 8.256,3.456 3.136,3.456 3.136,9.28 V 61 h -8 V 38.856 q 0,-3.264 -1.728,-4.992 -1.664,-1.792 -4.544,-1.792 -3.008,0 -4.736,1.792 -1.664,1.792 -1.664,5.12 V 61 Z m 55.87202,0.64 q -3.712,0 -6.208,-1.856 -2.496,-1.856 -3.456,-5.184 V 61 h -7.808 V 14.28 h 8 v 9.856 l -0.256,8.064 q 1.024,-3.328 3.52,-5.184 2.56,-1.856 6.208,-1.856 5.184,0 8.32,3.648 3.136,3.648 3.136,9.856 V 48.2 q 0,6.144 -3.2,9.792 -3.136,3.648 -8.256,3.648 z m -3.008,-6.912 q 3.072,0 4.736,-1.664 1.728,-1.664 1.728,-5.12 v -9.088 q 0,-3.456 -1.728,-5.12 -1.664,-1.664 -4.736,-1.664 -3.072,0 -4.8,1.856 -1.664,1.856 -1.664,5.248 v 8.448 q 0,3.392 1.664,5.248 1.728,1.856 4.8,1.856 z m 34.30403,6.912 q -5.376,0 -8.512,-3.008 -3.072,-3.072 -3.072,-8 0,-5.12 3.52,-8.128 3.52,-3.072 9.664,-3.072 h 8.576 v -2.496 q 0,-5.312 -6.208,-5.312 -2.816,0 -4.48,1.088 -1.664,1.088 -1.856,3.072 h -7.68 q 0.256,-4.736 3.968,-7.68 3.776,-2.944 10.112,-2.944 6.72,0 10.432,3.136 3.712,3.136 3.712,8.832 V 61 h -7.808 v -6.592 q -0.448,3.392 -3.2,5.312 -2.752,1.92 -7.168,1.92 z m 2.56,-6.528 q 3.52,0 5.568,-1.728 2.048,-1.728 2.048,-4.608 v -4.16 h -8.192 q -2.624,0 -4.16,1.472 -1.536,1.472 -1.536,3.776 0,2.368 1.6,3.84 1.664,1.408 4.672,1.408 z m 38.27202,6.464 q -6.272,0 -9.92,-2.816 -3.648,-2.88 -3.648,-7.744 h 7.872 q 0,2.048 1.472,3.136 1.536,1.088 4.224,1.088 h 2.816 q 2.88,0 4.416,-1.088 1.6,-1.088 1.6,-3.136 0,-1.92 -1.088,-2.816 -1.088,-0.96 -3.328,-1.28 l -8.768,-1.152 q -4.224,-0.576 -6.528,-3.264 -2.24,-2.688 -2.24,-6.976 0,-4.992 3.328,-7.616 3.328,-2.688 9.6,-2.688 h 2.944 q 5.888,0 9.472,2.688 3.584,2.688 3.712,7.168 h -7.936 q -0.064,-1.664 -1.472,-2.624 -1.408,-1.024 -3.776,-1.024 h -2.944 q -2.56,0 -3.904,1.088 -1.344,1.024 -1.344,2.816 0,1.6 0.96,2.368 1.024,0.768 2.944,0.96 l 8.256,1.152 q 4.864,0.576 7.296,3.456 2.496,2.816 2.496,7.616 0,5.12 -3.52,7.936 -3.456,2.752 -10.176,2.752 z m 39.93603,0.064 q -4.48,0 -7.808,-1.728 -3.328,-1.728 -5.184,-4.864 -1.792,-3.2 -1.792,-7.488 v -8.32 q 0,-4.288 1.792,-7.424 1.856,-3.2 5.184,-4.928 3.328,-1.728 7.808,-1.728 4.416,0 7.68,1.728 3.328,1.728 5.12,4.864 1.856,3.072 1.856,7.232 v 6.4 h -21.76 v 2.432 q 0,3.584 1.856,5.44 1.856,1.792 5.248,1.792 2.496,0 4.224,-0.832 1.792,-0.896 2.112,-2.56 h 7.936 q -0.832,4.544 -4.736,7.296 -3.904,2.688 -9.536,2.688 z m -7.104,-22.656 V 40.2 l 14.08,-0.064 V 38.92 q 0,-3.648 -1.792,-5.632 -1.792,-1.984 -5.184,-1.984 -3.52,0 -5.312,2.048 -1.792,1.984 -1.792,5.632 z" />
</svg>
